<svg xmlns="http://www.w3.org/2000/svg" viewBox="0 0 16.86 208.89">
    <defs>
        <style>
            .chopstick {
                fill: #754c29;
                stroke: #603913;
                stroke-miterlimit: 10;
            }
        </style>
    </defs>
        <g>
            <path class="chopstick"
                d="M.5,205.52a1.09,1.09,0,0,1,0-.13C.6,204.41,10.76,6.07,12.73,1.93A2.51,2.51,0,0,1,14.06.58,1.73,1.73,0,0,1,15.6.83a2.14,2.14,0,0,1,.68,1.23c1.15,5.7-10,202.72-10,203.89a2.52,2.52,0,0,1-.59,1.57,2.35,2.35,0,0,1-.82.58,3.64,3.64,0,0,1-2.71,0A1.85,1.85,0,0,1,2,208,2.83,2.83,0,0,1,.5,205.52Z" />
        </g>
</svg>