<?xml version="1.0" encoding="utf-8"?>
<!-- Svg Vector Icons : http://www.onlinewebfonts.com/icon -->
<!DOCTYPE svg PUBLIC "-//W3C//DTD SVG 1.1//EN" "http://www.w3.org/Graphics/SVG/1.1/DTD/svg11.dtd">
<svg version="1.1" xmlns="http://www.w3.org/2000/svg" xmlns:xlink="http://www.w3.org/1999/xlink" x="0px" y="0px"
    viewBox="0 0 1000 1000" enable-background="new 0 0 1000 1000" xml:space="preserve">
    <metadata> Svg Vector Icons : http://www.onlinewebfonts.com/icon </metadata>
    <g class="food" transform="translate(0.000000,511.000000) scale(0.100000,-0.100000)">
        <path
            d="M2993.2,3449.8c-735.6-105.8-1463.9-574.5-1872.6-1206.7c-252.4-387-348.6-649-435.1-1175.5l-14.4-91.3H442.8c-209.1,0-233.2-4.8-286-60.1c-69.7-67.3-72.1-96.2-24-329.3C226.5,146.9,478.9-456.4,736.1-855.5c449.5-699.5,1117.8-1302.8,1843.7-1668.2l209.1-105.8V-2942v-312.5h2211.5h2211.5v312.5v312.5l211.5,105.8c115.4,57.7,312.5,173.1,437.5,254.8c1002.4,661,1694.7,1622.6,1983.1,2764.4c74.5,295.7,74.5,348.6,0,420.7c-52.9,55.3-76.9,60.1-286.1,60.1c-259.6,0-235.6-19.2-266.8,228.4c-64.9,492.8-375,1096.1-764.4,1483.2c-867.8,870.2-2225.9,1031.2-3286,391.8c-98.5-60.1-197.1-120.2-216.3-134.6c-28.9-19.2-72.1-2.4-199.5,84.1C4296.1,3384.9,3618.2,3538.7,2993.2,3449.8z M3930.7,3021.9c519.2-129.8,968.7-420.7,1276.4-826.9c216.3-283.7,394.2-730.8,449.5-1127.4l14.4-91.3h-192.3c-132.2,0-194.7,9.6-199.5,31.2c-4.8,14.4-26.5,113-50.5,213.9c-115.4,531.2-533.6,1043.3-1055.3,1293.3c-295.7,141.8-459.1,177.9-807.7,177.9c-348.6,0-512-36.1-810.1-180.3c-516.8-247.6-937.5-764.4-1055.3-1290.8c-21.6-101-43.3-199.5-48.1-213.9c-4.8-21.6-67.3-31.2-199.5-31.2h-192.3l12,91.3c74.5,536.1,278.8,963.9,634.6,1329.3c372.6,379.8,790.9,588.9,1358.2,680.3C3226.4,3101.2,3740.8,3070,3930.7,3021.9z M7236,3012.3c947.1-283.7,1552.9-983.2,1689.9-1944.7l14.4-91.3H8748c-132.2,0-194.7,9.6-199.5,31.2c-4.8,14.4-26.4,110.6-48.1,213.9c-79.3,353.4-293.3,711.5-586.5,983.2c-209.1,192.3-382.2,298.1-634.6,384.6c-557.7,189.9-1156.2,127.4-1658.6-173.1c-50.5-31.3-93.7-50.5-98.5-43.3c-2.4,4.8-57.7,72.1-120.2,146.6l-115.4,139.4l146.6,93.8c194.7,127.4,473.6,240.4,721.1,293.3C6454.7,3113.2,6954.7,3096.4,7236,3012.3z M3863.4,2240.7c233.2-74.5,514.4-254.8,651.4-413.5c187.5-221.1,324.5-504.8,358.2-742.8l14.4-108.2h-189.9h-189.9l-40.9,139.4c-110.6,375-471.1,701.9-882.2,798.1c-492.8,115.4-1084.1-211.5-1290.9-713.9c-31.2-76.9-57.7-158.6-57.7-180.3c0-38.5-26.4-43.3-192.3-43.3c-187.5,0-192.3,2.4-192.3,57.7c0,33.7,26.4,144.2,60.1,247.6c165.9,526.4,586.5,894.2,1168.3,1016.8C3267.3,2336.8,3644.7,2310.4,3863.4,2240.7z M7005.2,2274.3c370.2-93.8,721.1-343.7,927.9-656.2c96.2-149,216.3-471.2,216.3-584.1c0-55.3-4.8-57.7-185.1-57.7h-187.5l-40.9,139.4c-115.4,394.2-485.6,723.5-896.6,800.5c-257.2,48.1-596.1-19.2-829.3-168.3l-108.2-67.3l-76.9,180.3c-62.5,141.8-72.1,187.5-50.5,204.3c79.3,55.3,382.2,187.5,500,218.8C6466.8,2334.4,6784.1,2332,7005.2,2274.3z M3707.2,1481.1c62.5-28.8,151.4-88.9,197.1-134.6c81.7-79.3,206.7-288.5,206.7-346.2c0-16.8-250-24-747.6-24h-745.2l16.8,55.3c103.4,338.9,396.6,531.2,778.8,512C3534.1,1538.8,3632.7,1517.1,3707.2,1481.1z M6949.9,1488.3c197.1-86.5,355.8-264.4,415.9-456.7l16.8-55.3h-661.1c-740.4,0-680.3-16.8-692.3,185.1c-2.4,79.3,7.2,115.4,52.9,163.4c72.1,76.9,192.3,153.8,310.1,197.1C6514.8,1567.6,6810.5,1550.8,6949.9,1488.3z M9457.1,526.7C9411.4,324.8,9284-9.3,9149.4-285.8c-396.6-810.1-1060.1-1471.1-1891.8-1889.4l-238-117.8H5000.4H2981.2l-238,117.8C1926-1764.1,1274.5-1119.9,865.9-319.4C743.3-79,529.3,485.9,529.3,567.6c0,16.8,1596.1,24,4471.1,24h4471.1L9457.1,526.7z M6827.3-2773.7v-96.2H5000.4H3173.5v96.2v96.2h1826.9h1826.9V-2773.7z" />
    </g>
</svg>