<?xml version="1.0" encoding="utf-8"?>
<!-- Svg Vector Icons : http://www.onlinewebfonts.com/icon -->
<!DOCTYPE svg PUBLIC "-//W3C//DTD SVG 1.1//EN" "http://www.w3.org/Graphics/SVG/1.1/DTD/svg11.dtd">
<svg version="1.1" xmlns="http://www.w3.org/2000/svg" xmlns:xlink="http://www.w3.org/1999/xlink" x="0px" y="0px"
    viewBox="0 0 1000 1000" enable-background="new 0 0 1000 1000" xml:space="preserve">
    <metadata> Svg Vector Icons : http://www.onlinewebfonts.com/icon </metadata>
    <g id="hotpot">
        <path
            d="M2716,4996.4c-51.7-28.7-42.1-51.7,59.4-160.9c103.4-109.2,128.3-183.8,111.1-321.7c-9.6-76.6-47.9-155.1-264.3-565l-103.4-197.2v-214.5c0-237.5,24.9-333.2,130.2-496c63.2-95.8,116.8-130.2,203-130.2c103.4,0,109.2,44,24.9,172.4c-101.5,149.4-132.1,283.4-101.5,434.7c11.5,63.2,84.3,237.5,164.7,406c201.1,406,231.7,542,172.4,741.1C3037.8,4915.9,2848.2,5074.9,2716,4996.4z" />
        <path
            d="M7090.1,4979.1c-118.7-72.8-233.6-312.2-233.6-488.3c0-124.5,49.8-264.3,203-576.4c172.4-346.6,203-473,155.1-641.6c-17.2-57.5-63.2-147.5-101.5-199.2c-78.5-103.4-72.8-147.5,21.1-158.9c84.3-9.6,149.4,28.7,212.6,126.4c107.3,162.8,132.1,258.5,132.1,496v214.5l-103.4,197.2c-245.1,461.5-258.5,492.2-266.2,607.1c-9.6,130.2,15.3,187.7,128.3,298.8c88.1,84.3,95.8,113,42.1,143.6C7222.2,5027,7160.9,5021.2,7090.1,4979.1z" />
        <path
            d="M1729.8,4768.5c-65.1-26.8-53.6-70.9,40.2-172.4c162.8-174.3,160.9-317.9-7.7-622.4c-53.6-93.8-128.3-237.5-168.5-316c-70.9-143.6-70.9-145.5-70.9-383c0-231.7,1.9-245.1,61.3-365.8c99.6-201.1,183.8-268.1,300.7-239.4c72.8,17.2,70.9,59.4-7.7,178.1c-166.6,247.1-153.2,396.4,67,842.6c168.5,340.9,210.7,492.2,181.9,660.7c-28.7,180-132.1,346.6-252.8,409.8C1814,4791.4,1789.1,4793.3,1729.8,4768.5z" />
        <path
            d="M8110.8,4751.2c-120.6-74.7-206.8-212.6-239.4-383c-34.5-187.7-5.7-294.9,183.8-681.8c216.4-436.6,227.9-599.4,65.1-838.8c-78.5-118.7-80.4-160.9-7.7-178.1c116.8-28.7,203,40.2,300.7,239.4c59.4,122.6,61.3,136,61.3,365.8c0,237.5,0,239.4-70.9,383c-40.2,78.5-114.9,222.2-168.5,316c-168.5,306.4-172.4,440.5-19.2,610.9c107.2,116.8,118.7,157,46,183.8C8195.1,4795.3,8175.9,4793.3,8110.8,4751.2z" />
        <path
            d="M689.9,4400.8c0-15.3,30.6-57.5,68.9-93.8c105.3-101.5,128.3-157,118.7-304.5c-7.7-136-30.6-193.4-231.7-557.3c-185.8-339-189.6-660.7-13.4-936.5c32.6-49.8,78.5-99.6,105.3-111.1c61.3-28.7,201.1-30.6,201.1-1.9c0,11.5-26.8,59.4-59.4,107.2c-170.4,245.1-147.5,488.3,90,942.2c57.5,109.2,118.7,247,134.1,304.5c63.2,214.5,1.9,467.3-143.6,605.2c-46,44-80.4,57.5-164.7,65.1C712.9,4425.7,689.9,4421.8,689.9,4400.8z" />
        <path
            d="M9116.2,4410.3c-114.9-42.1-231.7-245.1-245.1-429c-11.5-162.8,28.7-296.8,158.9-543.9c233.6-436.6,258.5-689.4,88.1-934.6c-32.5-47.9-59.4-95.8-59.4-107.2c0-28.7,139.8-26.8,201.1,1.9c26.8,11.5,72.8,61.3,105.3,111.1c176.2,275.8,172.4,597.5-13.4,936.5c-201.1,363.9-224.1,421.3-231.7,557.3c-9.6,147.5,13.4,203,118.7,304.5c91.9,90,90,116.8-11.5,114.9C9181.3,4421.8,9131.5,4416.1,9116.2,4410.3z" />
        <path
            d="M4807.3,3588.8c-478.8-24.9-938.4-137.9-938.4-229.8c0-42.1,178.1-114.9,406-164.7c178.1-38.3,249-42.1,733.5-42.1c486.4,0,555.4,3.8,737.3,42.1c227.9,49.8,402.2,120.7,402.2,164.7C6147.8,3485.4,5379.9,3617.5,4807.3,3588.8z" />
        <path
            d="M3771.2,3088.9c0-70.8,0-350.5,0-618.6V1982l-103.4-595.6c-57.5-327.5-105.3-610.9-105.3-626.2c0-38.3,193.4-132.1,383-183.8C4223.2,497.8,4499,471,4998.8,471c624.3,0,992,53.6,1286.9,187.7c189.6,86.2,183.8,17.2,63.2,691.3l-105.3,593.7v637.7v639.6l-61.3-38.3c-90-55.5-264.3-111.1-474.9-149.4c-147.5-28.7-281.5-34.5-699-34.5c-417.5,0-551.5,5.7-699,34.5c-210.7,38.3-384.9,93.8-473,149.4l-63.2,38.3L3771.2,3088.9z" />
        <path
            d="M3390.1,2409.1C1530.6,2211.8,249.4,1725.4,115.3,1164.3c-32.6-128.3-11.5-409.8,46-668.3c214.5-948,934.6-1761.9,2031.9-2298.1c618.6-300.7,1242.9-476.9,2049.1-576.4c252.8-30.6,1260.1-30.6,1512.9,0c806.2,99.6,1432.5,275.8,2049.1,578.4C8986-1221.9,9717.6-337.1,9870.8,695.1c55.5,369.6,36.4,505.6-95.8,685.6c-321.8,438.5-1495.7,836.9-2956.9,1003.5c-141.7,15.3-294.9,32.6-339,38.3l-82.3,9.6v-241.3c0-139.8,13.4-312.1,30.6-411.7l30.7-168.5l80.4-11.5c42.1-3.8,203-23,356.2-40.2c836.9-90,1647-285.4,2037.6-492.2c158.9-84.3,312.1-227.9,339-321.7c113-377.3-676-733.5-2054.9-926.9c-2259.8-316-5195.6-90-6189.5,478.8c-356.2,203-409.8,407.9-164.7,630.1c298.8,266.2,1173.9,515.1,2231.1,632c147.5,17.2,312.2,34.5,365.8,40.2l95.8,11.5l34.5,214.5c42.1,264.3,38.3,595.6-7.7,599.4C3566.3,2426.3,3480.1,2418.7,3390.1,2409.1z" />
        <path
            d="M6599.8,1411.3c-30.6-23-34.5-40.2-23-111.1c21.1-134.1,53.6-227.9,80.4-227.9c13.4,0,95.8,26.8,183.9,59.4c141.7,53.6,174.3,57.5,302.6,47.9c289.2-21.1,421.3-91.9,421.3-227.9c0-68.9-13.4-88.1-143.6-214.5c-130.2-126.4-168.5-181.9-130.2-181.9c7.7,0,57.5,17.2,111.1,38.3c51.7,19.2,145.5,49.8,204.9,67c151.3,40.2,226,116.8,226,231.7c0,116.8-38.3,199.2-132.1,277.7c-155.1,134.1-245.1,168.5-551.5,210.7C6718.5,1440.1,6641.9,1443.9,6599.8,1411.3z" />
        <path
            d="M3156.5,1212.2c-103.4-218.3-130.2-321.7-130.2-490.3c0-158.9,70.9-300.7,235.6-469.2c136-137.9,218.3-191.5,402.2-262.4c159-59.4,429-70.9,520.9-23c82.3,42.1,208.7,178.1,195.3,210.7c-5.8,17.2-67,34.5-181.9,49.8c-95.8,11.5-203,34.5-241.3,49.8c-36.4,15.3-84.3,28.7-103.4,28.7c-49.8,0-423.2,241.3-488.3,314.1c-84.3,95.8-122.6,183.8-145.6,333.2c-24.9,162.8-5.7,262.4,68.9,340.9c36.4,38.3,40.2,55.5,23,76.6C3269.5,1422.8,3242.7,1396,3156.5,1212.2z" />
        <path
            d="M2637.5,1304.1c-84.3-7.7-136-21.1-149.4-40.2c-21.1-32.6-3.8-268.1,23-296.8c23-23,279.6-13.4,327.5,11.5c74.7,40.2,30.6,350.4-47.9,339C2777.3,1317.5,2708.4,1309.8,2637.5,1304.1z" />
        <path
            d="M1994,1237.1c-15.3-19.2-13.4-46,7.7-107.3c36.4-101.5,15.3-134.1-86.2-134.1c-99.6,0-113-44-38.3-136c95.8-118.7,61.3-191.5-76.6-160.9c-132.1,28.7-180-78.5-65.1-147.5l70.9-42.1l-42.1-32.6c-53.6-44-51.7-86.2,7.7-124.5c40.2-26.8,80.4-30.6,210.7-23l160.9,11.5l-11.5-53.6c-13.4-68.9,32.6-95.8,166.6-95.8c53.6,0,116.8-9.6,139.8-21.1c21.1-13.4,99.6-28.7,170.4-36.4c113-13.4,151.3-28.7,266.2-105.3c134.1-88.1,227.9-113,268.1-72.8c42.1,42.1-7.7,97.7-195.3,226c-229.8,155.1-484.5,390.7-584.1,540.1c-38.3,59.4-101.5,178.1-136,262.4C2141.5,1189.2,2041.9,1296.4,1994,1237.1z" />
        <path
            d="M8099.3,1143.2c-82.4-55.5-107.2-124.5-74.7-204.9c30.6-74.7,107.2-114.9,218.3-114.9c226,0,285.3,266.2,76.6,344.7C8241,1198.8,8168.3,1191.1,8099.3,1143.2z" />
        <path
            d="M6933,928.7c-34.5-61.3-55.5-118.7-49.8-139.8c15.3-44,243.2-168.5,281.5-153.2c40.2,15.3,141.7,212.6,126.4,249c-13.4,34.5-216.4,149.4-264.3,149.4C7005.8,1034.1,6969.4,993.8,6933,928.7z" />
        <path
            d="M1178.2,865.5c-118.7-72.8-149.4-166.6-86.2-268.1c103.4-166.6,396.4-151.3,471.1,26.8c23,57.5,23,74.7,0,132.1C1507.6,886.6,1308.4,944,1178.2,865.5z" />
        <path
            d="M8601,802.3c-44-19.2-114.9-59.4-158.9-90c-45.9-30.6-116.8-67-158.9-80.4C8241,618.5,8120.4,563,8015,507.4C7768,377.2,7695.2,367.6,7498,432.7c-145.5,45.9-155.1,47.9-212.6,17.2c-49.8-26.8-122.6-116.8-122.6-151.3c0-28.7,99.6-69,216.4-88.1c103.4-15.3,164.7-13.4,312.1,11.5c118.7,19.2,243.2,28.7,350.5,23c204.9-11.5,277.7,7.7,505.6,139.8c97.7,55.5,224.1,120.6,281.5,145.5c97.7,40.2,105.3,47.9,101.5,103.4c-3.8,76.6-84.2,160.9-178.1,185.8C8693,834.9,8662.3,831.1,8601,802.3z" />
        <path
            d="M6605.6,658.7c-15.3-17.2-30.7-76.6-36.4-130.2c-9.6-91.9-13.4-97.7-57.5-91.9c-26.8,3.8-61.3,9.6-76.6,9.6c-17.2,1.9-49.8-40.2-82.3-107.2c-86.2-178.1-260.5-291.1-503.7-329.4C5774.4-2,5481.4,44,5299.5,95.7c-82.4,24.9-137.9,13.4-155.1-30.6c-15.3-38.3,15.3-95.8,59.4-113c172.4-68.9,1007.3-109.2,1283.1-59.4c206.8,36.4,325.6,78.5,350.4,128.3c23,40.2-23,74.7-99.6,74.7c-36.4,1.9-30.6,9.6,32.6,42.1c132.1,67,181.9,126.4,181.9,216.4c0,109.2-34.5,151.3-116.8,139.8c-36.4-5.7-78.5-15.3-95.8-23c-28.7-11.5-28.7-3.8-11.5,72.8c15.3,65.1,13.4,93.8-5.7,116.8C6691.7,698.9,6638.1,697,6605.6,658.7z" />
        <path
            d="M5697.8,407.8c-84.3-13.4-105.3-38.3-105.3-130.2c0-116.8,28.7-134.1,216.4-126.4c206.8,5.7,252.8,32.6,235.6,141.7c-7.7,44.1-23,90-34.5,103.4C5990.8,421.2,5828,427,5697.8,407.8z" />
        <path
            d="M4640.7,248.9c-103.4-61.3-130.2-158.9-72.8-268.1c101.5-195.3,440.5-120.6,440.5,97.7c0,65.1-11.5,88.1-72.8,143.6c-57.5,53.6-86.2,65.1-151.3,65.1C4736.4,287.2,4675.1,271.9,4640.7,248.9z" />
        <path
            d="M7201.1-2213.9c-1323.3-461.5-3014.3-469.2-4351.1-21.1c-109.2,36.4-199.2,65.1-203,61.3c-3.8-3.8-67-317.9-139.8-700.9c-151.3-775.6-153.2-827.3-61.3-997.8c229.8-425.2,963.3-756.5,1959.1-880.9c122.6-15.3,390.7-24.9,689.4-23c402.2,0,538.1,9.6,766,44.1c781.3,118.7,1336.7,342.8,1662.3,666.4c126.4,124.5,214.5,304.5,214.5,432.8c0,51.7-59.4,406-134.1,789c-72.8,383-134.1,700.9-134.1,706.7C7469.2-2120.1,7463.5-2122,7201.1-2213.9z" />
    </g>
</svg>