<?xml version="1.0" encoding="utf-8"?>
<!-- Generator: Adobe Illustrator 24.1.0, SVG Export Plug-In . SVG Version: 6.00 Build 0)  -->
<svg version="1.1" id="Layer_1" xmlns="http://www.w3.org/2000/svg" xmlns:xlink="http://www.w3.org/1999/xlink" x="0px" y="0px"
	 viewBox="0 0 1280 1278" style="enable-background:new 0 0 1280 1278;" xml:space="preserve">
<style type="text/css">
	.st1{opacity:0.6;fill:#8D8D8D;stroke:#231F20;stroke-width:4;stroke-miterlimit:10;}
</style>
<g class="hungry">
	<g>
		<path class="st1" d="M815.4,1.2c-52.2,5-99.5,26.4-132.5,59.9l-7.5,7.7l-8.9-3.9c-29.1-12.8-55.6-18.6-89-19.5
			c-22.4-0.6-38.4,0.9-58.5,5.3c-85.5,19.1-146.4,82.9-147.1,154l-0.1,10.1l-9.7,2.3c-39.2,9.4-71.8,26.5-97.5,51
			C233,298.2,217,333.7,217,373.4c0,16.2,1.7,27.6,6.2,41.7c10.4,32.6,34.6,63.3,67.3,85.1c18.1,12.1,46.1,24.2,69,29.8l9,2.2v15.2
			c0.1,10.2,0.7,18.1,1.8,24c14.1,71,80.2,124.9,167.7,136.8c12.2,1.7,47.9,1.7,59.5,0.1c35.5-5,67.6-16.2,92.5-32.3
			c3.3-2.1,6.4-3.9,6.9-3.9c0.4,0,3.4,2.1,6.7,4.6c40.7,31.8,95.5,47.9,150.5,44.4c33-2.1,59.7-9,87.4-22.5
			c33.9-16.5,61.2-41.1,78.8-71c2.6-4.4,3-4.7,6-4.1c39.1,8.2,69.5,8.5,104.5,1.1c75.1-15.8,133.3-67.8,146.3-130.8
			c9.5-46.1-6.2-95.1-41.4-129.6l-6.6-6.4l1.9-2.7c4.2-5.9,13.2-26.1,16.1-36c4.1-14.2,5.1-22.1,5.1-38
			c-0.1-66.1-49.8-125.5-125.7-150.3c-24.3-8-45.4-11.1-74.1-11.2h-22.1l-2.3-6c-9.5-25.2-30.2-51.5-55.5-70.7
			C931.2,11.7,871.1-4.2,815.4,1.2z"/>
		<path class="st1" d="M424.3,738.6c-8.4,1.9-20.2,6.9-26.6,11.2c-12.5,8.5-23.3,22.1-27.8,35.3c-3,9-3.8,25.1-1.5,34
			c5.2,20.1,18.2,35.7,38.1,45.6c31.3,15.5,70,8.8,93.5-16.2c34.6-36.8,16.4-93.1-35-108.6C456.4,737.2,433.3,736.5,424.3,738.6z"/>
		<path class="st1" d="M240.6,911.7c-18.7,4.5-35.1,20.9-40.1,40c-2,7.6-1.9,21.6,0.1,28.5c7.1,24.3,28.7,40.8,53.4,40.9
			c25.5,0,48.1-18.8,53.5-44.5c0.8-3.9,1.5-8.8,1.5-11c0-6.9-2.8-17.7-6.6-25.4C291.4,917.9,265.1,905.8,240.6,911.7z"/>
		<path class="st1" d="M98.2,1093.6c-7.3,2-10.3,3.8-15.3,8.8c-7.3,7.3-9.4,12.5-9.4,23.7c0,8.2,0.4,10.3,2.6,15
			c3.4,7.2,8.9,12.6,16.7,16.3c5.2,2.4,7.6,2.9,13.5,2.9c14,0.1,24.8-6.6,30.9-19c2.9-5.9,3.3-7.6,3.3-14.7c0-6.6-0.5-9-2.8-14.1
			C130.8,1097.5,113.6,1089.3,98.2,1093.6z"/>
		<path class="st1" d="M18.5,1232c-5,1.3-8.9,3.7-12.8,8c-12,13.3-3.2,35.6,14.9,37.7c9.8,1.2,18.9-3.9,23.6-13
			c4.2-8.1,1.9-20.5-4.8-26.8C34.3,1233.1,24.8,1230.4,18.5,1232z"/>
	</g>
	<g id="hotpot">
		<path d="M629.5,113.2c-2.8,1.6-2.3,2.8,3.2,8.8c5.7,6,7,10,6.1,17.6c-0.5,4.2-2.6,8.5-14.4,30.9l-5.7,10.8v11.7
			c0,13,1.4,18.2,7.1,27.1c3.5,5.2,6.4,7.1,11.1,7.1c5.7,0,6-2.4,1.4-9.4c-5.5-8.2-7.2-15.5-5.5-23.8c0.6-3.5,4.6-13,9-22.2
			c11-22.2,12.7-29.6,9.4-40.5C647.1,117.6,636.7,108.9,629.5,113.2z"/>
		<path d="M868.6,114.1c-6.5,4-12.8,17.1-12.8,26.7c0,6.8,2.7,14.4,11.1,31.5c9.4,18.9,11.1,25.9,8.5,35.1
			c-0.9,3.1-3.5,8.1-5.5,10.9c-4.3,5.7-4,8.1,1.2,8.7c4.6,0.5,8.2-1.6,11.6-6.9c5.9-8.9,7.2-14.1,7.2-27.1v-11.7l-5.7-10.8
			c-13.4-25.2-14.1-26.9-14.6-33.2c-0.5-7.1,0.8-10.3,7-16.3c4.8-4.6,5.2-6.2,2.3-7.9C875.8,111.5,872.5,111.8,868.6,114.1z"/>
		<path d="M575.6,125.6c-3.6,1.5-2.9,3.9,2.2,9.4c8.9,9.5,8.8,17.4-0.4,34c-2.9,5.1-7,13-9.2,17.3c-3.9,7.9-3.9,8-3.9,20.9
			c0,12.7,0.1,13.4,3.4,20c5.4,11,10,14.7,16.4,13.1c4-0.9,3.9-3.2-0.4-9.7c-9.1-13.5-8.4-21.7,3.7-46.1
			c9.2-18.6,11.5-26.9,9.9-36.1c-1.6-9.8-7.2-18.9-13.8-22.4C580.2,124.4,578.8,124.3,575.6,125.6z"/>
		<path d="M924.4,126.6c-6.6,4.1-11.3,11.6-13.1,20.9c-1.9,10.3-0.3,16.1,10,37.3c11.8,23.9,12.5,32.8,3.6,45.9
			c-4.3,6.5-4.4,8.8-0.4,9.7c6.4,1.6,11.1-2.2,16.4-13.1c3.2-6.7,3.4-7.4,3.4-20c0-13,0-13.1-3.9-20.9c-2.2-4.3-6.3-12.1-9.2-17.3
			c-9.2-16.7-9.4-24.1-1-33.4c5.9-6.4,6.5-8.6,2.5-10C929,124.1,928,124.3,924.4,126.6z"/>
		<path d="M518.7,145.7c0,0.8,1.7,3.1,3.8,5.1c5.8,5.5,7,8.6,6.5,16.6c-0.4,7.4-1.7,10.6-12.7,30.5c-10.2,18.5-10.4,36.1-0.7,51.2
			c1.8,2.7,4.3,5.4,5.8,6.1c3.4,1.6,11,1.7,11,0.1c0-0.6-1.5-3.2-3.2-5.9c-9.3-13.4-8.1-26.7,4.9-51.5c3.1-6,6.5-13.5,7.3-16.6
			c3.5-11.7,0.1-25.5-7.9-33.1c-2.5-2.4-4.4-3.1-9-3.6C520,144.4,518.7,144.6,518.7,145.7z"/>
		<path d="M979.4,145.2c-6.3,2.3-12.7,13.4-13.4,23.5c-0.6,8.9,1.6,16.2,8.7,29.7c12.8,23.9,14.1,37.7,4.8,51.1
			c-1.8,2.6-3.2,5.2-3.2,5.9c0,1.6,7.6,1.5,11-0.1c1.5-0.6,4-3.4,5.8-6.1c9.6-15.1,9.4-32.7-0.7-51.2c-11-19.9-12.3-23-12.7-30.5
			c-0.5-8.1,0.7-11.1,6.5-16.6c5-4.9,4.9-6.4-0.6-6.3C982.9,144.6,980.2,144.9,979.4,145.2z"/>
		<path d="M743.8,190.1c-26.2,1.4-51.3,7.5-51.3,12.6c0,2.3,9.7,6.3,22.2,9c9.7,2.1,13.6,2.3,40.1,2.3c26.6,0,30.4-0.2,40.3-2.3
			c12.5-2.7,22-6.6,22-9C817.1,195.8,775.1,188.5,743.8,190.1z"/>
		<path d="M687.2,217.4c0,3.9,0,19.2,0,33.8v26.7l-5.7,32.6c-3.1,17.9-5.8,33.4-5.8,34.2c0,2.1,10.6,7.2,20.9,10
			c15.2,4.3,30.3,5.8,57.6,5.8c34.1,0,54.2-2.9,70.3-10.3c10.4-4.7,10-0.9,3.5-37.8l-5.8-32.5v-34.9v-35l-3.4,2.1
			c-4.9,3-14.4,6.1-26,8.2c-8.1,1.6-15.4,1.9-38.2,1.9c-22.8,0-30.1-0.3-38.2-1.9c-11.5-2.1-21-5.1-25.9-8.2l-3.5-2.1L687.2,217.4z"
			/>
		<path d="M666.3,254.6c-101.7,10.8-171.7,37.4-179,68c-1.8,7-0.6,22.4,2.5,36.5c11.7,51.8,51.1,96.3,111.1,125.6
			c33.8,16.4,67.9,26.1,112,31.5c13.8,1.7,68.9,1.7,82.7,0c44.1-5.4,78.3-15.1,112-31.6c64.6-31.6,104.6-80,113-136.4
			c3-20.2,2-27.6-5.2-37.5c-17.6-24-81.8-45.7-161.6-54.9c-7.7-0.8-16.1-1.8-18.5-2.1l-4.5-0.5v13.2c0,7.6,0.7,17.1,1.7,22.5
			l1.7,9.2l4.4,0.6c2.3,0.2,11.1,1.3,19.5,2.2c45.7,4.9,90,15.6,111.4,26.9c8.7,4.6,17.1,12.5,18.5,17.6
			c6.2,20.6-37,40.1-112.3,50.7c-123.5,17.3-284,4.9-338.4-26.2c-19.5-11.1-22.4-22.3-9-34.4c16.3-14.6,64.2-28.2,122-34.5
			c8.1-0.9,17.1-1.9,20-2.2l5.2-0.6l1.9-11.7c2.3-14.4,2.1-32.6-0.4-32.8C676,253.7,671.3,254.1,666.3,254.6z"/>
		<path d="M841.8,309.1c-1.7,1.3-1.9,2.2-1.3,6.1c1.2,7.3,2.9,12.5,4.4,12.5c0.7,0,5.2-1.5,10.1-3.2c7.7-2.9,9.5-3.1,16.5-2.6
			c15.8,1.2,23,5,23,12.5c0,3.8-0.7,4.8-7.9,11.7c-7.1,6.9-9.2,9.9-7.1,9.9c0.4,0,3.1-0.9,6.1-2.1c2.8-1,8-2.7,11.2-3.7
			c8.3-2.2,12.4-6.4,12.4-12.7c0-6.4-2.1-10.9-7.2-15.2c-8.5-7.3-13.4-9.2-30.1-11.5C848.3,307.6,844.1,307.4,841.8,309.1z"/>
		<path d="M653.6,320c-5.7,11.9-7.1,17.6-7.1,26.8c0,8.7,3.9,16.4,12.9,25.6c7.4,7.5,11.9,10.5,22,14.3c8.7,3.2,23.5,3.9,28.5,1.3
			c4.5-2.3,11.4-9.7,10.7-11.5c-0.3-0.9-3.7-1.9-9.9-2.7c-5.2-0.6-11.1-1.9-13.2-2.7c-2-0.8-4.6-1.6-5.7-1.6
			c-2.7,0-23.1-13.2-26.7-17.2c-4.6-5.2-6.7-10-8-18.2c-1.4-8.9-0.3-14.3,3.8-18.6c2-2.1,2.2-3,1.3-4.2
			C659.8,308.5,658.3,310,653.6,320z"/>
		<path d="M625.2,315c-4.6,0.4-7.4,1.2-8.2,2.2c-1.2,1.8-0.2,14.7,1.3,16.2c1.3,1.3,15.3,0.7,17.9-0.6c4.1-2.2,1.7-19.2-2.6-18.5
			C632.8,314.3,629.1,314.7,625.2,315z"/>
		<path d="M590,318.7c-0.8,1-0.7,2.5,0.4,5.9c2,5.5,0.8,7.3-4.7,7.3c-5.4,0-6.2,2.4-2.1,7.4c5.2,6.5,3.4,10.5-4.2,8.8
			c-7.2-1.6-9.8,4.3-3.6,8.1l3.9,2.3l-2.3,1.8c-2.9,2.4-2.8,4.7,0.4,6.8c2.2,1.5,4.4,1.7,11.5,1.3l8.8-0.6l-0.6,2.9
			c-0.7,3.8,1.8,5.2,9.1,5.2c2.9,0,6.4,0.5,7.6,1.2c1.2,0.7,5.4,1.6,9.3,2c6.2,0.7,8.3,1.6,14.6,5.8c7.3,4.8,12.5,6.2,14.7,4
			c2.3-2.3-0.4-5.3-10.7-12.4c-12.6-8.5-26.5-21.4-31.9-29.5c-2.1-3.2-5.5-9.7-7.4-14.3C598.1,321.3,592.6,315.4,590,318.7z"/>
		<path d="M923.8,323.8c-4.5,3-5.9,6.8-4.1,11.2c1.7,4.1,5.9,6.3,11.9,6.3c12.4,0,15.6-14.6,4.2-18.8
			C931.5,320.8,927.5,321.2,923.8,323.8z"/>
		<path d="M860,335.5c-1.9,3.4-3,6.5-2.7,7.6c0.8,2.4,13.3,9.2,15.4,8.4c2.2-0.8,7.7-11.6,6.9-13.6c-0.7-1.9-11.8-8.2-14.4-8.2
			C864,329.8,862,332,860,335.5z"/>
		<path d="M545.4,339c-6.5,4-8.2,9.1-4.7,14.7c5.7,9.1,21.7,8.3,25.8-1.5c1.3-3.1,1.3-4.1,0-7.2C563.4,337.8,552.5,334.7,545.4,339z
			"/>
		<path d="M951.2,342.4c-2.4,1-6.3,3.2-8.7,4.9c-2.5,1.7-6.4,3.7-8.7,4.4c-2.3,0.7-8.9,3.8-14.7,6.8c-13.5,7.1-17.5,7.6-28.3,4.1
			c-8-2.5-8.5-2.6-11.6-0.9c-2.7,1.5-6.7,6.4-6.7,8.3c0,1.6,5.4,3.8,11.8,4.8c5.7,0.8,9,0.7,17.1-0.6c6.5-1,13.3-1.6,19.2-1.3
			c11.2,0.6,15.2-0.4,27.6-7.6c5.3-3,12.3-6.6,15.4-8c5.3-2.2,5.8-2.6,5.5-5.7c-0.2-4.2-4.6-8.8-9.7-10.2
			C956.2,340.6,954.6,340.9,951.2,342.4z"/>
		<path d="M842.1,350.3c-0.8,0.9-1.7,4.2-2,7.1c-0.5,5-0.7,5.3-3.1,5c-1.5-0.2-3.4-0.5-4.2-0.5c-0.9-0.1-2.7,2.2-4.5,5.9
			c-4.7,9.7-14.2,15.9-27.5,18c-4.1,0.6-20.1-1.9-30-4.7c-4.5-1.4-7.5-0.7-8.5,1.7c-0.8,2.1,0.8,5.2,3.2,6.2
			c9.4,3.8,55.1,6,70.1,3.2c11.3-2,17.8-4.3,19.2-7c1.3-2.2-1.3-4.1-5.4-4.1c-2-0.1-1.7-0.5,1.8-2.3c7.2-3.7,9.9-6.9,9.9-11.8
			c0-6-1.9-8.3-6.4-7.6c-2,0.3-4.3,0.8-5.2,1.3c-1.6,0.6-1.6,0.2-0.6-4c0.8-3.6,0.7-5.1-0.3-6.4
			C846.8,348.1,843.9,348.2,842.1,350.3z"/>
		<path d="M792.5,364c-4.6,0.7-5.8,2.1-5.8,7.1c0,6.4,1.6,7.3,11.8,6.9c11.3-0.3,13.8-1.8,12.9-7.7c-0.4-2.4-1.3-4.9-1.9-5.7
			C808.5,363.3,799.6,362.9,792.5,364z"/>
		<path d="M734.7,372.7c-5.7,3.4-7.1,8.7-4,14.7c5.5,10.7,24.1,6.6,24.1-5.3c0-3.6-0.6-4.8-4-7.9c-3.1-2.9-4.7-3.6-8.3-3.6
			C739.9,370.6,736.6,371.4,734.7,372.7z"/>
		<path d="M874.7,507.3c-72.3,25.2-164.8,25.6-237.9,1.2c-6-2-10.9-3.6-11.1-3.4c-0.2,0.2-3.7,17.4-7.6,38.3
			c-8.3,42.4-8.4,45.2-3.4,54.5c12.6,23.2,52.7,41.4,107.1,48.2c6.7,0.8,21.4,1.4,37.7,1.3c22,0,29.4-0.5,41.9-2.4
			c42.7-6.5,73.1-18.7,90.9-36.4c6.9-6.8,11.7-16.6,11.7-23.7c0-2.8-3.2-22.2-7.3-43.1c-4-20.9-7.3-38.3-7.3-38.6
			C889.3,502.2,889,502.3,874.7,507.3z"/>
	</g>
</g>
</svg>
