<?xml version="1.0" encoding="utf-8"?>
<!-- Generator: Adobe Illustrator 24.1.0, SVG Export Plug-In . SVG Version: 6.00 Build 0)  -->
<svg version="1.1" id="Layer_1" xmlns="http://www.w3.org/2000/svg" xmlns:xlink="http://www.w3.org/1999/xlink" x="0px" y="0px"
	 viewBox="0 0 1280 1278" style="enable-background:new 0 0 1280 1278;" xml:space="preserve">
<style type="text/css">
	.st0{opacity:0.6;fill:#8D8D8D;stroke:#231F20;stroke-width:4;stroke-miterlimit:10;}
</style>
<g class="think">
	<g>
		<path class="st0" d="M815.4,1.2c-52.2,5-99.5,26.4-132.5,59.9l-7.5,7.7l-8.9-3.9c-29.1-12.8-55.6-18.6-89-19.5
			c-22.4-0.6-38.4,0.9-58.5,5.3c-85.5,19.1-146.4,82.9-147.1,154l-0.1,10.1l-9.7,2.3c-39.2,9.4-71.8,26.5-97.5,51
			C233,298.2,217,333.7,217,373.4c0,16.2,1.7,27.6,6.2,41.7c10.4,32.6,34.6,63.3,67.3,85.1c18.1,12.1,46.1,24.2,69,29.8l9,2.2v15.2
			c0.1,10.2,0.7,18.1,1.8,24c14.1,71,80.2,124.9,167.7,136.8c12.2,1.7,47.9,1.7,59.5,0.1c35.5-5,67.6-16.2,92.5-32.3
			c3.3-2.1,6.4-3.9,6.9-3.9c0.4,0,3.4,2.1,6.7,4.6c40.7,31.8,95.5,47.9,150.5,44.4c33-2.1,59.7-9,87.4-22.5
			c33.9-16.5,61.2-41.1,78.8-71c2.6-4.4,3-4.7,6-4.1c39.1,8.2,69.5,8.5,104.5,1.1c75.1-15.8,133.3-67.8,146.3-130.8
			c9.5-46.1-6.2-95.1-41.4-129.6l-6.6-6.4l1.9-2.7c4.2-5.9,13.2-26.1,16.1-36c4.1-14.2,5.1-22.1,5.1-38
			c-0.1-66.1-49.8-125.5-125.7-150.3c-24.3-8-45.4-11.1-74.1-11.2h-22.1l-2.3-6c-9.5-25.2-30.2-51.5-55.5-70.7
			C931.2,11.7,871.1-4.2,815.4,1.2z"/>
		<path class="st0" d="M424.3,738.6c-8.4,1.9-20.2,6.9-26.6,11.2c-12.5,8.5-23.3,22.1-27.8,35.3c-3,9-3.8,25.1-1.5,34
			c5.2,20.1,18.2,35.7,38.1,45.6c31.3,15.5,70,8.8,93.5-16.2c34.6-36.8,16.4-93.1-35-108.6C456.4,737.2,433.3,736.5,424.3,738.6z"/>
		<path class="st0" d="M240.6,911.7c-18.7,4.5-35.1,20.9-40.1,40c-2,7.6-1.9,21.6,0.1,28.5c7.1,24.3,28.7,40.8,53.4,40.9
			c25.5,0,48.1-18.8,53.5-44.5c0.8-3.9,1.5-8.8,1.5-11c0-6.9-2.8-17.7-6.6-25.4C291.4,917.9,265.1,905.8,240.6,911.7z"/>
		<path class="st0" d="M98.2,1093.6c-7.3,2-10.3,3.8-15.3,8.8c-7.3,7.3-9.4,12.5-9.4,23.7c0,8.2,0.4,10.3,2.6,15
			c3.4,7.2,8.9,12.6,16.7,16.3c5.2,2.4,7.6,2.9,13.5,2.9c14,0.1,24.8-6.6,30.9-19c2.9-5.9,3.3-7.6,3.3-14.7c0-6.6-0.5-9-2.8-14.1
			C130.8,1097.5,113.6,1089.3,98.2,1093.6z"/>
		<path class="st0" d="M18.5,1232c-5,1.3-8.9,3.7-12.8,8c-12,13.3-3.2,35.6,14.9,37.7c9.8,1.2,18.9-3.9,23.6-13
			c4.2-8.1,1.9-20.5-4.8-26.8C34.3,1233.1,24.8,1230.4,18.5,1232z"/>
	</g>
	<g transform="translate(0.000000,1225.000000) scale(0.100000,-0.100000)">
		<path d="M6633.3,10505l-1114.1-526.4l-1.2-85.8l-0.8-86.2h2232.1h2232.1l-0.8,86.2l-1.2,85.8l-1115.3,526.8
			c-613,289.5-1115.3,526.4-1116.1,526C7747.8,11031.5,7246,10794.6,6633.3,10505z"/>
		<path d="M5948.5,9723.4c-1.2-2.3-1.6-66.3-1.2-141.3l1.2-136.6h1800.9h1800.9v140.5v140.5l-1800.1,1.2
			C6307.9,9728.5,5949.7,9727.7,5948.5,9723.4z"/>
		<path d="M6112.8,9353.1c-1.2-7-3.9-100.7-6.2-208c-2.3-107.3-5.9-259.9-7.8-339.5c-2-79.2-5.5-216.2-7.8-304.4
			c-2.3-87.8-5.9-229.5-7.8-314.1c-2-84.7-5.5-225.9-7.8-314.1c-2.3-87.8-5.9-224.8-7.8-304.4c-2-79.2-5.1-200.2-6.2-268.1
			l-2.7-124.1h262.6h262.2l-2.3,65.6c-2.3,51.5-60.9,2099.4-60.9,2118.6c0,3.9-39,5.1-202.9,5.1h-202.5L6112.8,9353.1z"/>
		<path d="M7064.9,9325.8c-1.2-22.2-3.9-120.2-6.2-217.7c-2.3-97.6-5.9-244.3-7.8-325.8c-2-81.6-5.5-219.7-7.8-307.1
			c-2-87.8-5.9-229.8-7.8-316.1c-19.5-768.4-23.4-929.5-23.4-954.1v-28.5h261.5h261.5v12.9c0,10.5-14.8,535.8-31.2,1099.3
			c-2.3,76.1-5.9,198.2-7.8,271.2c-2.3,73-7.4,257.6-11.7,409.7c-3.9,152.6-8.6,304-10.1,336.8l-2.3,59.3h-202.1h-202.1
			L7064.9,9325.8z"/>
		<path d="M8017.1,9302.4c-2.3-55-53.1-2086.2-53.1-2115v-10.9h261.5h261.5v14.8c0.4,33.6-58.9,2105.3-60.9,2138.5l-2.3,35.9h-202.1
			h-202.1L8017.1,9302.4z"/>
		<path d="M8970.8,9353.1c0-7-2.7-113.9-5.9-237.3c-6.2-237.6-6.6-263-25.4-1006.8c-2-85.9-5.5-226.3-7.8-312.2
			c-2-85.9-5.5-226.7-7.8-313c-2-86.6-4.7-191.2-6.2-232.2l-2.3-75.3h261.8h261.8v20.7c0.4,41-58.9,2143.5-60.9,2156l-2,12.5h-202.5
			h-202.9V9353.1z"/>
		<path d="M5728,6955.9v-142.8l-119.8,0.4l-120.2,0.4l-1.2-140.5l-0.8-140.9H5369h-117.1V6392v-140.5h2497.5h2497.5V6392v140.5
			h-117.1h-117.1l-0.8,140.9l-1.2,140.5l-119.8-0.4l-120.2-0.4v142.8v142.4H7749.4H5728V6955.9z"/>
	</g>
</g>
</svg>
